HIERARCHY
ROOT Hips
{
	OFFSET 0.00000 0.00000 0.00000
	CHANNELS 6 Xposition Yposition Zposition Zrotation Yrotation Xrotation 
	JOINT LHipJoint
	{
		OFFSET 0 0 0
		CHANNELS 3 Zrotation Yrotation Xrotation
		JOINT LeftHip
		{
			OFFSET 1.30186 -1.90722 0.65024
			CHANNELS 3 Zrotation Yrotation Xrotation
			JOINT LeftKnee
			{
				OFFSET 2.56413 -7.04489 0.00000
				CHANNELS 3 Zrotation Yrotation Xrotation
				JOINT LeftAnkle
				{
					OFFSET 2.79321 -7.67428 0.00000
					CHANNELS 3 Zrotation Yrotation Xrotation
					JOINT LeftToe
					{
						OFFSET 0.15723 -0.43198 2.08537
						CHANNELS 3 Zrotation Yrotation Xrotation
						End Site
						{
							OFFSET 0.00000 -0.00000 1.07411
						}
					}
				}
			}
		}
	}
	JOINT RHipJoint
	{
		OFFSET 0 0 0
		CHANNELS 3 Zrotation Yrotation Xrotation
		JOINT RightHip
		{
			OFFSET -1.28627 -1.90723 0.65024
			CHANNELS 3 Zrotation Yrotation Xrotation
			JOINT RightKnee
			{
				OFFSET -2.56567 -7.04913 0.00000
				CHANNELS 3 Zrotation Yrotation Xrotation
				JOINT RightAnkle
				{
					OFFSET -2.75597 -7.57198 0.00000
					CHANNELS 3 Zrotation Yrotation Xrotation
					JOINT RightToe
					{
						OFFSET -0.17500 -0.48081 2.22901
						CHANNELS 3 Zrotation Yrotation Xrotation
						End Site
						{
							OFFSET -0.00000 -0.00000 1.14762
						}
					}
				}
			}
		}
	}
	JOINT lowerback
	{
		OFFSET 0 0 0
		CHANNELS 3 Zrotation Yrotation Xrotation
		JOINT Chest
		{
			OFFSET -0.04522 2.07467 -0.16566
			CHANNELS 3 Zrotation Yrotation Xrotation
			JOINT Chest2
			{
				OFFSET -0.01178 2.08825 -0.05393
				CHANNELS 3 Zrotation Yrotation Xrotation
				JOINT lowerneck
				{
					OFFSET 0 0 0
					CHANNELS 3 Zrotation Yrotation Xrotation
					JOINT Neck
					{
						OFFSET -0.05182 1.80489 0.16014
						CHANNELS 3 Zrotation Yrotation Xrotation
						JOINT Head
						{
							OFFSET 0.14739 1.78840 -0.33342
							CHANNELS 3 Zrotation Yrotation Xrotation
							End Site
							{
								OFFSET 0.04364 1.83899 -0.13460
							}
						}
					}
				}
				JOINT LeftCollar
				{
					OFFSET 0 0 0
					CHANNELS 3 Zrotation Yrotation Xrotation
					JOINT LeftShoulder
					{
						OFFSET 3.01264 1.29090 -0.06579
CHANNELS 3 Zrotation Xrotation Yrotation
						JOINT LeftElbow
						{
OFFSET 0 -5.556800 0.000000
CHANNELS 3 Zrotation Xrotation Yrotation
							JOINT LeftWrist
							{
OFFSET 0 -3.639790 -0.000000
CHANNELS 3 Zrotation Xrotation Yrotation
								JOINT lhand
								{
									OFFSET 0 0 0
CHANNELS 3 Zrotation Xrotation Yrotation
									JOINT LFingers
									{
OFFSET 0 -0.569420 -0.000000
CHANNELS 3 Zrotation Xrotation Yrotation
										End Site
										{
OFFSET 0 -0.459080 -0.000000
										}
									}
								}
								JOINT LThumb
								{
OFFSET 0 0.000000 0.000000
CHANNELS 3 Zrotation Xrotation Yrotation
									End Site
									{
OFFSET 0 -0.466090 0.466090
									}
								}
							}
						}
					}
				}
				JOINT RightCollar
				{
					OFFSET 0 0 0
					CHANNELS 3 Zrotation Yrotation Xrotation
					JOINT RightShoulder
					{
						OFFSET -3.15796 1.37283 -0.36748
CHANNELS 3 Zrotation Xrotation Yrotation
						JOINT RightElbow
						{
OFFSET 0 -5.343390 0.000000
CHANNELS 3 Zrotation Xrotation Yrotation
							JOINT RightWrist
							{
OFFSET 0 -3.651010 -0.000000
CHANNELS 3 Zrotation Xrotation Yrotation
								JOINT rhand
								{
									OFFSET 0 0 0
CHANNELS 3 Zrotation Xrotation Yrotation
									JOINT RFingers
									{
OFFSET 0 -0.694250 -0.000000
CHANNELS 3 Zrotation Xrotation Yrotation
										End Site
										{
OFFSET 0 -0.559720 -0.000000
										}
									}
								}
								JOINT RThumb
								{
OFFSET 0 0.000000 0.000000
CHANNELS 3 Zrotation Xrotation Yrotation
									End Site
									{
OFFSET 0 -0.568270 0.568270
									}
								}
							}
						}
					}
				}
			}
		}
	}
}
MOTION
Frames: 10
Frame Time: 0.008333333333333333
2.769900 14.398400 20.433700 179.599000 -1.780200 176.195000 0.000000 0.000000 0.000000 8.564700 -4.044900 -55.442200 8.589000 16.535900 54.657700 -0.356100 -10.538700 4.749700 8.312700 -16.344500 -53.681300 0.000000 0.000000 0.000000 26.204500 22.516800 -58.862700 -20.756500 -19.986300 92.212300 -0.002800 1.181300 2.037100 -1.226200 -7.023200 19.784100 -18.140400 -3.448400 36.890000 -3.693900 -14.880000 6.579900 10.546500 -7.898400 -7.587100 -1.278500 -2.615400 -7.273300 4.404000 -3.337300 24.988100 1.462200 -0.801700 9.110100 0.000000 -0.000000 0.000000 67.641200 12.077700 -5.758600 38.048200 -46.870000 17.000700 22.217900 -2.970100 -11.199400 0.000000 0.000000 0.000000 -7.125000 0.000000 0.000000 -4.403900 42.010900 -0.325500 0.000000 -0.000000 0.000000 -10.316800 31.845900 -25.575200 -52.245500 -53.862000 -27.977700 -81.543100 -84.270000 -48.893700 0.000000 0.000000 0.000000 7.125000 0.000000 -0.000000 -15.333500 -51.333100 -21.727800
2.762937 14.363200 20.251070 179.576344 -1.370567 176.364644 0.000000 0.000000 0.000000 8.473523 -4.391538 -54.998583 8.212412 16.267840 53.315465 -0.289955 -9.842163 6.084310 8.160296 -16.235032 -53.136670 0.000000 0.000000 0.000000 25.750991 22.786794 -59.945606 -21.324505 -19.951597 93.876307 -0.058225 0.906277 4.422787 -1.075233 -6.577538 18.474688 -18.430785 -3.280745 36.452406 -3.775793 -14.735001 6.776345 10.462507 -7.914315 -7.201007 0.170882 -2.813337 -6.254384 2.793870 -3.542199 23.250101 0.658240 -1.018812 8.276577 0.000000 0.000000 0.000000 67.904950 12.367201 -5.134397 37.112227 -46.254086 16.323891 21.782019 -3.079568 -10.958306 0.000000 0.000000 0.000000 -7.125000 0.000000 0.000000 -4.755290 41.711397 -0.388882 0.000000 0.000000 0.000000 -10.396317 31.557836 -25.674942 -51.304830 -53.502929 -27.221152 -80.158536 -82.492547 -48.736489 0.000000 0.000000 0.000000 7.125000 0.000000 0.000000 -14.905742 -50.166532 -21.164161
2.754366 14.327969 20.069912 179.533810 -0.978887 176.505997 0.000000 0.000000 0.000000 8.420157 -4.810400 -54.626947 7.913316 16.055112 52.249725 -0.224494 -9.225833 7.443615 8.033261 -16.143729 -52.682595 0.000000 0.000000 0.000000 25.267445 22.981599 -61.016985 -21.886083 -19.912351 95.522708 -0.120033 0.690815 6.738847 -0.932417 -6.147421 17.213889 -18.708401 -3.117097 36.071564 -3.860316 -14.604916 6.959517 10.383720 -7.931733 -6.850905 1.327835 -2.982161 -5.504769 1.507533 -3.722362 21.926577 0.013327 -1.198155 7.643970 0.000000 0.000000 0.000000 68.113231 12.633973 -4.449971 36.216515 -45.659449 15.677877 21.301480 -3.282105 -10.844327 0.000000 0.000000 0.000000 -7.125000 0.000000 0.000000 -5.166073 41.542333 -0.439969 0.000000 0.000000 0.000000 -10.506809 31.344121 -25.737652 -50.432187 -53.167458 -26.519937 -78.833102 -80.868323 -48.590195 0.000000 0.000000 0.000000 7.125000 0.000000 0.000000 -14.491983 -49.052847 -20.615572
2.738948 14.292603 19.895018 179.406715 -0.663580 176.526995 0.000000 0.000000 0.000000 8.527635 -5.536501 -54.561521 7.943874 16.077768 52.360187 -0.161941 -8.950700 8.907972 8.014141 -16.129693 -52.613743 0.000000 0.000000 0.000000 24.656117 22.856548 -62.039327 -22.420325 -19.853777 97.094212 -0.209000 0.728723 8.758721 -0.824276 -5.783432 16.159883 -18.931702 -2.970495 35.932146 -3.956025 -14.538274 7.086225 10.327079 -7.955550 -6.653908 1.240802 -3.027142 -5.900753 1.598599 -3.797293 22.366216 0.044990 -1.216832 7.866055 0.000000 0.000000 0.000000 68.085546 12.804059 -3.509356 35.492073 -45.155323 15.162865 20.630970 -3.880557 -11.271090 0.000000 0.000000 0.000000 -7.125000 0.000000 0.000000 -5.829510 41.928150 -0.438753 0.000000 0.000000 0.000000 -10.749063 31.446681 -25.642828 -49.848931 -52.932388 -26.054106 -77.759204 -79.895935 -48.490342 0.000000 0.000000 0.000000 7.125000 0.000000 0.000000 -14.137774 -48.164120 -20.131008
2.717894 14.242955 19.720503 179.265316 -0.438346 176.477316 0.000000 0.000000 0.000000 8.730234 -6.371541 -54.437428 8.054303 16.157514 52.755569 -0.114134 -8.877692 10.196560 7.664393 -15.843400 -51.304726 0.000000 0.000000 0.000000 23.970641 22.618182 -63.150585 -22.963822 -19.783781 98.696974 -0.283957 0.858069 10.394095 -0.669815 -5.178675 14.430189 -19.125806 -2.835863 35.923440 -4.057223 -14.517067 7.222715 10.278769 -8.000612 -6.492207 1.111258 -3.104432 -6.233927 1.700835 -3.920772 22.653435 0.083994 -1.268661 8.027748 0.000000 0.000000 0.000000 68.030200 12.931445 -2.505447 34.779599 -44.650608 14.659380 20.003940 -4.443166 -11.762011 0.000000 0.000000 0.000000 -7.125000 0.000000 0.000000 -6.471344 42.382373 -0.415198 0.000000 0.000000 0.000000 -11.086459 31.525471 -25.533111 -49.145060 -52.641195 -25.493974 -76.721359 -79.030236 -48.401512 0.000000 0.000000 0.000000 7.125000 0.000000 0.000000 -13.788803 -47.312268 -19.649304
2.687667 14.170068 19.546603 179.100644 -0.359658 176.312644 0.000000 0.000000 0.000000 9.087592 -7.383827 -54.217885 8.294678 16.330142 53.614511 -0.090317 -9.133540 11.199175 6.776716 -15.114150 -47.977983 0.000000 0.000000 0.000000 23.164526 22.195452 -64.406506 -23.522378 -19.695201 100.350593 -0.336121 1.136187 11.403893 -0.439994 -4.182193 11.601161 -19.272408 -2.720704 36.127401 -4.167354 -14.569784 7.375118 10.244011 -8.080239 -6.387934 0.912547 -3.234290 -6.464908 1.821244 -4.123241 22.692669 0.134943 -1.374426 8.091185 0.000000 0.000000 0.000000 67.929850 12.989356 -1.398558 34.086599 -44.144935 14.174651 19.447650 -4.947457 -12.357313 0.000000 0.000000 0.000000 -7.125000 0.000000 0.000000 -7.078030 42.947891 -0.355297 0.000000 0.000000 0.000000 -11.578649 31.565589 -25.399164 -48.244950 -52.258694 -24.780418 -75.742173 -78.338120 -48.330615 0.000000 0.000000 0.000000 7.125000 0.000000 0.000000 -13.448354 -46.520410 -19.172255
2.664225 14.111065 19.384031 178.851728 -0.310124 176.040063 0.000000 0.000000 0.000000 9.255130 -8.238885 -53.764379 8.719763 16.614088 55.100782 -0.075146 -8.183512 9.911609 6.581524 -14.964490 -47.265024 0.000000 0.000000 0.000000 22.302721 21.660112 -65.480905 -24.000127 -19.608767 101.770470 -0.337518 1.478009 11.609921 -0.233711 -2.585961 7.153865 -19.532377 -2.534488 36.500861 -4.221289 -14.624741 7.492467 10.339439 -8.154188 -6.343421 -0.320867 -3.493798 -7.359472 2.977682 -4.554307 23.716375 0.686284 -1.524996 8.687482 0.000000 0.000000 0.000000 67.765890 13.018554 -0.450537 33.375993 -43.611875 13.682569 19.217645 -5.288527 -12.800091 0.000000 0.000000 0.000000 -7.125000 0.000000 0.000000 -7.368243 43.386599 -0.294766 0.000000 0.000000 0.000000 -12.238920 31.605770 -25.217257 -47.297984 -51.839908 -24.034205 -74.361734 -77.176785 -48.258835 0.000000 0.000000 0.000000 7.125000 0.000000 0.000000 -12.947113 -45.435270 -18.458815
2.645879 14.062493 19.229970 178.539516 -0.282494 175.686407 0.000000 0.000000 0.000000 9.280052 -8.975816 -53.135092 9.283623 16.981669 57.058379 -0.066471 -6.327480 6.903377 6.906611 -15.250288 -48.515862 0.000000 0.000000 0.000000 21.399074 21.040163 -66.418923 -24.417165 -19.523945 103.014731 -0.300770 1.867694 11.212058 -0.045113 -0.539121 1.490725 -19.877524 -2.294886 37.001671 -4.233004 -14.681382 7.583478 10.532679 -8.223869 -6.343808 -2.331678 -3.850715 -8.752601 4.912513 -5.157125 25.479737 1.613581 -1.709229 9.684130 0.000000 0.000000 0.000000 67.554139 13.026180 0.378123 32.652158 -43.058237 13.184964 19.232786 -5.506965 -13.128273 0.000000 0.000000 0.000000 -7.125000 0.000000 0.000000 -7.420684 43.730033 -0.233760 0.000000 0.000000 0.000000 -13.025473 31.645999 -24.999316 -46.315815 -51.393859 -23.263455 -72.679823 -75.662916 -48.186390 0.000000 0.000000 0.000000 7.125000 0.000000 0.000000 -12.325065 -44.129782 -17.567767
2.623746 14.011312 19.067705 178.195751 -0.050741 175.197285 0.000000 0.000000 0.000000 9.386548 -9.634623 -53.039633 9.920054 17.351270 59.202641 -0.072099 -5.863086 5.753634 6.334890 -14.706422 -46.239498 0.000000 0.000000 0.000000 20.484952 20.646511 -67.083442 -24.756794 -19.446527 104.033203 -0.241306 1.939917 10.128663 -0.113227 -1.432856 3.957889 -21.454399 -3.417725 37.687127 -4.363651 -14.134147 7.486268 10.747123 -6.842426 -6.212641 -3.495408 -4.144946 -9.476605 5.821463 -5.573067 26.443936 2.082651 -1.871669 10.250778 0.000000 0.000000 0.000000 67.272256 12.999645 0.997821 31.971530 -42.519324 12.723413 19.229501 -5.682071 -13.570927 0.000000 0.000000 0.000000 -7.125000 0.000000 0.000000 -7.516709 44.190210 -0.150037 0.000000 0.000000 0.000000 -13.910091 31.938690 -24.664547 -45.498981 -51.006287 -22.627162 -70.339178 -73.472265 -48.112768 0.000000 0.000000 0.000000 7.125000 0.000000 0.000000 -11.442729 -42.392444 -16.283616
2.600427 13.959314 18.902868 177.842095 0.245004 174.665696 0.000000 0.000000 0.000000 9.518616 -10.268938 -53.111525 10.579236 17.721504 61.405421 -0.082211 -5.834960 5.186514 5.482026 -13.902462 -42.857386 0.000000 0.000000 0.000000 19.567546 20.323799 -67.662223 -25.072156 -19.371430 104.980890 -0.174719 1.912620 8.830358 -0.261817 -3.248438 8.973837 -23.417411 -4.967678 38.430468 -4.531582 -13.397603 7.330051 10.968213 -5.006067 -6.040234 -4.393584 -4.419527 -9.990843 6.408809 -5.930426 27.157603 2.408070 -2.027278 10.682625 0.000000 0.000000 0.000000 66.968388 12.962400 1.552011 31.304446 -41.985027 12.273164 19.220438 -5.843592 -14.049468 0.000000 0.000000 0.000000 -7.125000 0.000000 0.000000 -7.626398 44.686987 -0.059191 0.000000 0.000000 0.000000 -14.825453 32.310526 -24.293153 -44.733979 -50.637048 -22.033020 -67.792025 -71.069448 -48.038777 0.000000 0.000000 0.000000 7.125000 0.000000 0.000000 -10.478795 -40.519724 -14.876231
